# xmcd
#
# Track frame offsets: 
#        150
#        19455
#        32185
#        49330
#        64125
#        83940
#        95350
#        110507
#        129112
#        147132
#        166152
#
# Disc length: 2488 seconds
#
# Revision: 5
# Processed by: cddbd v1.5.2PL0 Copyright (c) Steve Scherf et al.
# Submitted via: ExactAudioCopyFreeDBPlugin 1.0
#
DISCID=9109b60b
DTITLE=Billy Ray Cyrus - Shot Full Of Love
DYEAR=1998
DGENRE=Country
TTITLE0=How's My World Treatin' You
TTITLE1=Under The Hood
TTITLE2=Give My Heart To You
TTITLE3=Busy Man
TTITLE4=Shot Full Of Love
TTITLE5=Rock This Planet
TTITLE6=Missing You
TTITLE7=Touchy Subject
TTITLE8=His Shoes
TTITLE9=Time For Letting Go
TTITLE10=The American Dream
EXTD=
EXTT0=
EXTT1=
EXTT2=
EXTT3=
EXTT4=
EXTT5=
EXTT6=
EXTT7=
EXTT8=
EXTT9=
EXTT10=
PLAYORDER=
